<svg width="45" height="45" viewBox="0 0 45 45" fill="none" xmlns="http://www.w3.org/2000/svg">
<path d="M44.2619 22.1647C44.2507 17.8298 42.9428 13.5956 40.5037 9.99753C38.0645 6.39946 34.6037 3.59915 30.5587 1.95071C26.5138 0.302264 22.0664 -0.120272 17.7791 0.736532C13.4917 1.59334 9.55695 3.691 6.4723 6.76426C3.38766 9.83751 1.29169 13.7483 0.449452 18.0022C-0.392784 22.256 0.0565456 26.6618 1.7406 30.6624C3.42466 34.663 6.26782 38.0788 9.91054 40.4777C13.5533 42.8767 17.8319 44.151 22.2055 44.1397L22.5962 44.1387L22.552 27.0721L17.7977 27.0844L17.7835 21.5977L22.5378 21.5853L22.5274 17.5525C22.5152 12.8621 25.3907 10.3122 29.607 10.3013C31.0299 10.2926 32.4523 10.3596 33.868 10.5021L33.8806 15.3971L30.9322 15.4047C28.6398 15.4106 28.2004 16.493 28.2045 18.0784L28.2135 21.5707L33.7639 21.5563L33.041 27.0449L28.2719 27.0573L28.3139 43.2837C32.9249 41.9567 36.975 39.1783 39.8521 35.3683C42.7293 31.5583 44.2772 26.9237 44.2619 22.1647Z" fill="#e5ccb2"/>
</svg>
