<svg width="46" height="44" viewBox="0 0 46 44" fill="none" xmlns="http://www.w3.org/2000/svg">
<path d="M22.9401 0.154432C18.5665 0.165753 14.2945 1.46227 10.6642 3.88004C7.03396 6.29781 4.20852 9.72823 2.5452 13.7375C0.881872 17.7468 0.455367 22.1548 1.31961 26.4043C2.18386 30.6537 4.30003 34.5536 7.40055 37.6108C10.5011 40.6681 14.4467 42.7454 18.7384 43.58C23.0301 44.4146 27.4752 43.969 31.5115 42.2996C35.5479 40.6303 38.9942 37.8121 41.4147 34.2014C43.8352 30.5908 45.1212 26.3499 45.11 22.0149C45.0949 16.202 42.7507 10.6332 38.593 6.53352C34.4354 2.43388 28.8048 0.139251 22.9401 0.154432ZM34.2217 24.4176C35.2919 25.3744 36.3106 26.3863 37.2738 27.449C37.6979 27.9232 38.0653 28.4444 38.3687 29.0023C38.791 29.8049 38.4173 30.6971 37.6877 30.7429L33.1545 30.7546C32.6165 30.7951 32.0762 30.712 31.5759 30.5118C31.0755 30.3116 30.6284 29.9998 30.2694 29.6004C29.6413 28.9664 29.0572 28.2958 28.4511 27.6398C28.2089 27.3646 27.9335 27.1199 27.631 26.9114C27.5174 26.8166 27.3827 26.7501 27.2381 26.7171C27.0934 26.6842 26.9429 26.6858 26.799 26.7218C26.6551 26.7579 26.5219 26.8274 26.4104 26.9245C26.2989 27.0216 26.2123 27.1436 26.1577 27.2805C25.8388 27.9343 25.6767 28.6523 25.684 29.3785C25.6352 30.4307 25.3189 30.7091 24.2134 30.7631C21.9644 30.9467 19.7104 30.4725 17.7307 29.3991C16.0013 28.3752 14.5105 26.9995 13.3565 25.3629C11.0716 22.2007 9.13763 18.8034 7.58823 15.2298C7.22498 14.4344 7.48923 14.0027 8.37372 13.9858C9.84793 13.982 11.3221 13.9782 12.7963 13.9744C13.073 13.9759 13.3418 14.065 13.5637 14.2288C13.7856 14.3925 13.9489 14.6222 14.0297 14.8844C14.8192 16.8321 15.8332 18.6829 17.0514 20.3999C17.3548 20.8736 17.7401 21.2906 18.1897 21.6317C18.2769 21.7225 18.3878 21.7877 18.51 21.82C18.6323 21.8522 18.7612 21.8503 18.8824 21.8145C19.0037 21.7786 19.1125 21.7102 19.197 21.6168C19.2814 21.5234 19.3381 21.4086 19.3608 21.2852C19.511 20.9169 19.5997 20.5268 19.6232 20.1302C19.75 18.7774 19.7218 17.4148 19.539 16.0683C19.5092 15.6817 19.3459 15.3169 19.0767 15.0356C18.8075 14.7542 18.4487 14.5733 18.0607 14.5233C17.633 14.444 17.6916 14.2831 17.9047 14.0415C18.0589 13.8211 18.2664 13.6425 18.5081 13.5219C18.7499 13.4013 19.0182 13.3426 19.2887 13.3512L24.4116 13.3379C25.2154 13.4892 25.4006 13.8468 25.5133 14.6574L25.5278 20.2903C25.5287 20.6044 25.6932 21.5246 26.2687 21.7496C26.8443 21.9746 27.0053 21.5358 27.292 21.2501C28.4684 19.9395 29.4365 18.4588 30.1628 16.8591C30.5074 16.1641 30.8078 15.4474 31.0934 14.7233C31.1635 14.4791 31.3171 14.2666 31.5278 14.1222C31.7385 13.9777 31.9933 13.9102 32.2486 13.9313L37.1872 13.9185C37.3318 13.904 37.4774 13.9036 37.6221 13.9174C38.4554 14.0541 38.6848 14.4041 38.4289 15.2085C37.9621 16.4377 37.2979 17.5842 36.4622 18.6035C35.6396 19.7381 34.7651 20.7997 33.95 21.9635C33.1348 23.1272 33.2906 23.5213 34.2217 24.4176Z" fill="#e5ccb2"/>
</svg>
