<?xml version="1.0" encoding="utf-8"?>
<!-- Generator: Adobe Illustrator 24.1.2, SVG Export Plug-In . SVG Version: 6.00 Build 0)  -->
<svg version="1.1" id="Layer_1" xmlns="http://www.w3.org/2000/svg" xmlns:xlink="http://www.w3.org/1999/xlink" x="0px" y="0px"
	 viewBox="0 0 259 194" style="enable-background:new 0 0 259 194;" xml:space="preserve">
<style type="text/css">
	.st0{fill:none;stroke:#784a27;stroke-width:8;stroke-miterlimit:10;}
	.st1{fill:none;stroke:#784a27;stroke-width:4;stroke-miterlimit:10;}
</style>
<path class="st0" d="M109,159.32c1.19-0.45,3.57-1.09,3.91-2.49c0.08-0.31,0.05-0.64,0-0.96c-0.38-2.69-1.87-5.21-4.04-6.84
	c-0.61-0.46-1.3-0.86-2.06-0.94c-0.5-0.05-1.02,0.04-1.48-0.16c-1.01-0.45-1.05-1.92-1.17-2.86c-0.14-1.13-0.19-3.96-0.1-5.09
	c0.17-2.14,0.82-4.41,2.47-5.87c0.92-0.81,2-1.41,3.06-2.01c1.96-1.13,3.88-2.4,5.4-4.09c4.54-5.09,7.01-11.55,7.73-18.29
	c0.75-7-0.14-14.06-1.03-21.05c-0.39-3.05-0.83-6.24-2.6-8.75c-3.27-4.62-9.98-5.55-13.66-9.86c-3.6-4.22-3.32-10.4-2.85-15.93
	c0.1-1.17,0.34-2.09,0.79-3.15c0.4-0.93,0.66-1.86,1.47-2.54c0.77-0.65,1.82-0.9,2.57-1.57c0.68-0.61,1.04-1.49,1.25-2.38
	s0.31-1.8,0.58-2.66c0.34-1.09,0.95-2.1,1.77-2.9c0.66-0.65,0.95-0.66,1.58-1.34c0.4-0.43,0.84-0.99,0.96-1.58
	c0.17-0.83-0.46-0.96-1.17-1.06c-5.64-0.82-15.43-0.81-15.43-0.81c-3.35,0-9.69-0.01-15.32,0.81c-0.7,0.1-1.34,0.23-1.17,1.06
	c0.12,0.59,0.56,1.15,0.96,1.58c0.63,0.68,0.92,0.69,1.58,1.34c0.81,0.8,1.43,1.81,1.77,2.9c0.27,0.87,0.37,1.78,0.58,2.66
	s0.57,1.77,1.25,2.38c0.75,0.67,1.8,0.92,2.57,1.57c0.8,0.68,1.07,1.61,1.47,2.54c0.45,1.06,0.69,1.97,0.79,3.15
	c0.47,5.53,0.75,11.71-2.85,15.93c-3.67,4.31-10.39,5.23-13.66,9.86c-1.77,2.51-2.21,5.7-2.6,8.75c-0.89,6.99-1.78,14.05-1.03,21.05
	c0.73,6.74,3.19,13.2,7.73,18.29c1.52,1.7,3.44,2.96,5.4,4.09c1.05,0.61,2.14,1.2,3.06,2.01c1.66,1.46,2.31,3.74,2.47,5.87
	c0.09,1.14,0.05,3.96-0.1,5.09c-0.12,0.94-0.17,2.41-1.17,2.86c-0.46,0.2-0.98,0.11-1.48,0.16c-0.76,0.08-1.45,0.48-2.06,0.94
	c-2.17,1.64-3.65,4.15-4.04,6.84c-0.05,0.32-0.08,0.65,0,0.96c0.34,1.4,2.72,2.05,3.91,2.49c3.77,1.41,7.88,1.39,11.93,1.39
	C96.97,160.72,105.23,160.73,109,159.32z"/>
<path class="st1" d="M91.66,61.16c-0.04-2.04-0.56-4.31-1.31-6.21c-0.76-1.93-2.04-3.72-3.87-4.69c-2.53-1.35-7.18-1.37-8.59,1.62
	c-0.34,0.72-0.49,1.51-0.61,2.29c-0.57,3.89-0.2,7.83,0.16,11.71c0.35,3.77,1.03,7.84-0.21,11.49c-0.04,0.11-0.08,0.22-0.12,0.33"/>
<path class="st1" d="M102.39,61.16c0.04-2.04,0.56-4.31,1.31-6.21c0.76-1.93,2.04-3.72,3.87-4.69c2.53-1.35,7.18-1.37,8.59,1.62
	c0.34,0.72,0.49,1.51,0.61,2.29c0.57,3.89,0.2,7.83-0.16,11.71c-0.35,3.77-1.03,7.84,0.21,11.49c0.04,0.11,0.08,0.22,0.12,0.33"/>
<g>
	<path fill="#784a27" d="M177.82,12c2.55,0,4.62,2.07,4.62,4.62v161.59c0,2.55-2.07,4.62-4.62,4.62H16.23c-2.55,0-4.62-2.07-4.62-4.62V16.62
		c0-2.55,2.07-4.62,4.62-4.62H177.82 M177.82,2H16.23C8.16,2,1.6,8.56,1.6,16.62v161.59c0,8.06,6.56,14.62,14.62,14.62h161.59
		c8.06,0,14.62-6.56,14.62-14.62V16.62C192.44,8.56,185.88,2,177.82,2L177.82,2z"/>
</g>
</svg>
