<?xml version="1.0" encoding="utf-8"?>
<!-- Generator: Adobe Illustrator 23.0.6, SVG Export Plug-In . SVG Version: 6.00 Build 0)  -->
<svg version="1.1" id="Слой_1" xmlns="http://www.w3.org/2000/svg" xmlns:xlink="http://www.w3.org/1999/xlink" x="0px" y="0px"
	 viewBox="0 0 285 46" style="enable-background:new 0 0 285 46;" xml:space="preserve">
<style type="text/css">
	.st0{clip-path:url(#SVGID_3_);}
	.st1{clip-path:url(#SVGID_4_);fill:#784a27;}
	.st2{fill:none;}
	.st3{fill-rule:evenodd;clip-rule:evenodd;fill:#784a27;}
</style>
<g>
	<defs>
		<rect id="SVGID_1_" x="5.05" width="243.68" height="47.19"/>
	</defs>
	<defs>
		<path id="SVGID_2_" d="M232.52,34.24h0.32c0.12,0.41,0.32,0.75,0.53,0.97c0.24,0.26,0.71,0.47,1.34,0.47
			c0.57,0,1.23-0.24,1.23-0.93c0-0.73-0.41-0.95-1.19-1.29l-0.83-0.36c-0.88-0.38-1.24-0.95-1.24-1.61c0-1.3,1.2-1.81,2.11-1.81
			c0.74,0,1.29,0.2,1.86,0.32c-0.04,0.33-0.04,0.48-0.04,0.71c0,0.3,0.02,0.51,0.02,0.78h-0.32c-0.1-0.4-0.19-0.68-0.45-0.94
			c-0.25-0.25-0.72-0.37-1.08-0.37c-0.58,0-1.14,0.26-1.14,0.93c0,0.65,0.32,0.89,0.75,1.07l0.84,0.35c0.96,0.4,1.7,0.87,1.7,1.83
			c0,1.4-1.45,1.84-2.22,1.84c-0.91,0-1.44-0.19-2.05-0.24C232.64,35.14,232.56,34.53,232.52,34.24L232.52,34.24z M228.25,31.68
			c0-0.5-0.01-0.86-0.06-1.32c-0.23-0.02-0.57-0.02-0.78-0.02s-0.61,0.01-0.87,0.2c-0.2,0.15-0.29,0.4-0.45,0.84h-0.32
			c0.08-0.5,0.12-1.1,0.15-1.61c0.45,0.04,1.14,0.07,1.89,0.07h1.94c0.75,0,1.33-0.02,2.04-0.07c-0.1,0.63-0.16,0.97-0.22,1.61
			h-0.32c-0.04-0.3-0.15-0.73-0.31-0.87c-0.16-0.14-0.41-0.17-0.9-0.17c-0.13,0-0.51,0-0.66,0.02c-0.05,0.47-0.07,0.82-0.07,1.32
			v2.48c0,0.5,0.02,0.97,0.15,1.24c0.09,0.2,0.51,0.25,0.97,0.35v0.3c-0.45-0.04-1.08-0.05-1.64-0.05c-0.56,0-1.19,0.01-1.64,0.05
			v-0.3c0.46-0.1,0.88-0.15,0.97-0.35c0.12-0.27,0.15-0.74,0.15-1.24V31.68L228.25,31.68z M221,32.7c0.21,0.06,0.42,0.08,0.63,0.08
			c0.42,0,1.45-0.05,1.45-1.27c0-0.95-0.5-1.28-1.28-1.28c-0.25,0-0.56,0.09-0.67,0.21C221,30.59,221,31.18,221,31.68V32.7L221,32.7
			z M223.92,34.5c0.42,0.59,0.92,1.2,1.73,1.2V36c-0.25,0.04-0.58,0.07-0.91,0.07c-0.77,0-1.22-0.3-1.93-1.32l-1.07-1.51
			c-0.27,0-0.6-0.01-0.75-0.04v0.96c0,0.5,0.03,0.97,0.15,1.24c0.09,0.2,0.51,0.25,0.97,0.35v0.3c-0.57-0.04-1.08-0.05-1.64-0.05
			c-0.56,0-1.07,0.01-1.52,0.05v-0.3c0.46-0.11,0.76-0.15,0.85-0.35c0.12-0.27,0.15-0.74,0.15-1.24v-2.48c0-0.5-0.02-0.97-0.15-1.24
			c-0.09-0.2-0.39-0.24-0.85-0.35v-0.3c0.45,0.04,0.92,0.05,1.35,0.05c0.5,0,1.14-0.09,1.6-0.09c0.6,0,2.33,0.16,2.33,1.61
			c0,0.79-0.47,1.43-1.35,1.71L223.92,34.5L223.92,34.5z M214.25,32.34c0.32,0,0.53,0,0.71-0.04l-1.2-3.1h-0.05l-1.13,3.12
			c0.19,0.02,0.33,0.02,0.66,0.02H214.25L214.25,32.34z M215.2,32.93c-0.31-0.02-0.63-0.02-0.96-0.02h-1.02
			c-0.32,0-0.57,0-0.88,0.02l-0.58,1.63c-0.16,0.46-0.24,0.63-0.24,0.81c0,0.24,0.52,0.31,0.92,0.41v0.3
			c-0.31-0.02-0.96-0.07-1.61-0.07c-0.51,0-0.91,0.05-1.16,0.07v-0.3c0.26-0.04,0.55-0.1,0.73-0.22c0.25-0.16,0.48-0.59,0.69-1.14
			l2.73-7.25h0.32l2.91,7.34c0.22,0.55,0.29,0.8,0.5,0.96c0.21,0.16,0.5,0.26,0.78,0.32v0.3c-0.2-0.02-0.99-0.07-1.34-0.07
			c-0.8,0-1.52,0.05-1.8,0.07v-0.3c0.36-0.08,0.88-0.2,0.88-0.45c0-0.2-0.13-0.45-0.24-0.73L215.2,32.93L215.2,32.93z M202.25,33.04
			c-0.27,0-0.42,0.01-0.6,0.04v1.08c0,0.5,0.01,0.88,0.06,1.27c0.28,0.06,0.81,0.07,1.25,0.07c0.37,0,0.98-0.03,1.21-0.18
			c0.22-0.15,0.44-0.45,0.71-0.99h0.32c-0.13,0.57-0.21,1.14-0.26,1.71c-0.51-0.04-1.68-0.05-2.55-0.05h-1.18
			c-0.31,0-1.15,0.01-1.6,0.05v-0.3c0.46-0.11,0.74-0.15,0.84-0.35c0.14-0.27,0.15-0.74,0.15-1.24v-2.48c0-0.5-0.02-0.97-0.15-1.24
			c-0.09-0.2-0.38-0.24-0.84-0.35v-0.3c0.45,0.04,1.27,0.05,1.58,0.05h0.43c0.75,0,2.14-0.05,3.3-0.05
			c-0.11,0.48-0.22,1.09-0.27,1.47h-0.3c-0.06-0.31-0.12-0.58-0.27-0.76c-0.16-0.2-0.68-0.2-1.06-0.2c-0.37,0-0.61,0-1.29,0.05
			c-0.08,0.22-0.09,0.83-0.09,1.33v0.83c0.17,0.03,0.33,0.04,0.6,0.04h0.35c0.36,0,0.79,0,0.97-0.2c0.15-0.16,0.21-0.31,0.31-0.57
			h0.3c-0.05,0.45-0.06,0.72-0.06,1.02c0,0.32,0,0.57,0.05,1.02h-0.3c-0.09-0.26-0.15-0.45-0.31-0.61
			c-0.16-0.16-0.61-0.16-0.96-0.16H202.25L202.25,33.04z M192.47,32.3c0-0.62,0-1.46-0.15-1.74c-0.12-0.24-0.63-0.4-0.97-0.47v-0.3
			c0.2,0.04,0.66,0.05,1.1,0.05c0.09,0,0.43,0,0.72-0.05c0.6,0.7,1.13,1.28,1.73,1.9l1.27,1.33c0.41,0.43,0.75,0.78,1.06,1.08h0.05
			v-2.42c0-0.5-0.02-0.97-0.15-1.24c-0.09-0.2-0.51-0.25-0.97-0.35v-0.3c0.32,0.04,0.77,0.05,1.33,0.05c0.56,0,0.96-0.01,1.28-0.05
			v0.3c-0.46,0.11-0.76,0.15-0.84,0.35c-0.13,0.27-0.15,0.75-0.15,1.24v1.86c0,0.62,0,1.99,0.04,2.51h-0.3
			c-0.56-0.65-1.07-1.23-1.6-1.79l-1.48-1.55c-0.57-0.61-0.92-0.98-1.4-1.53h-0.05v2.98c0,0.5,0.03,0.97,0.15,1.24
			c0.09,0.2,0.51,0.25,0.97,0.35v0.3c-0.32-0.04-0.83-0.05-1.39-0.05c-0.56,0-1.02,0.01-1.34,0.05v-0.3
			c0.46-0.1,0.88-0.15,0.97-0.35c0.13-0.27,0.15-0.74,0.15-1.24V32.3L192.47,32.3z M188.25,32.3c0-0.62-0.02-1.59-0.15-1.86
			c-0.09-0.2-0.51-0.25-0.97-0.35v-0.3c0.45,0.04,1.07,0.05,1.63,0.05c0.56,0,1.2-0.01,1.65-0.05v0.3c-0.46,0.1-0.88,0.15-0.97,0.35
			c-0.13,0.27-0.15,1.24-0.15,1.86v1.24c0,0.62,0.02,1.59,0.15,1.86c0.08,0.2,0.51,0.25,0.97,0.35v0.3
			c-0.45-0.04-1.09-0.05-1.65-0.05c-0.56,0-1.18,0.01-1.63,0.05v-0.3c0.46-0.1,0.88-0.15,0.97-0.35c0.12-0.27,0.15-1.24,0.15-1.86
			V32.3L188.25,32.3z M180.76,29.82c0-0.62,0-1.54-0.17-1.81c-0.13-0.18-0.49-0.28-0.94-0.4v-0.32c0.45,0.04,1.14,0.07,1.7,0.07
			h0.56c0.99,0,2.83-0.07,4.25-0.07c-0.16,0.73-0.26,1.54-0.32,1.91h-0.32c-0.05-0.28-0.1-0.89-0.35-1.09
			c-0.26-0.21-0.86-0.21-1.35-0.21c-0.5,0-0.71,0-1.76,0.1c-0.08,0.22-0.11,1.2-0.11,1.83v1.39c0.17,0.05,0.58,0.06,0.97,0.06h0.35
			c0.61-0.01,1.03-0.02,1.26-0.24c0.21-0.2,0.27-0.51,0.39-0.91h0.32c-0.05,0.45-0.07,0.88-0.07,1.43c0,0.57,0.02,0.98,0.07,1.43
			h-0.32c-0.11-0.39-0.18-0.73-0.4-0.93c-0.2-0.17-0.65-0.21-1.24-0.21h-0.35c-0.4,0-0.79,0.02-0.97,0.06v1.64
			c0,0.62,0,1.54,0.17,1.81c0.12,0.19,0.73,0.31,1.19,0.4v0.32c-0.45-0.04-1.39-0.07-1.95-0.07c-0.56,0-1.25,0.04-1.7,0.07v-0.32
			c0.46-0.11,0.82-0.21,0.94-0.4c0.17-0.27,0.17-1.19,0.17-1.81V29.82L180.76,29.82z M170.6,31.68c0-0.5-0.02-0.97-0.15-1.24
			c-0.09-0.2-0.39-0.24-0.84-0.35v-0.3c0.45,0.04,1.27,0.05,1.58,0.05h0.43c0.75,0,2.14-0.05,3.3-0.05
			c-0.11,0.48-0.22,1.09-0.27,1.47h-0.3c-0.05-0.28-0.13-0.58-0.27-0.76c-0.16-0.2-0.68-0.2-1.06-0.2c-0.37,0-0.61,0-1.29,0.05
			c-0.08,0.22-0.09,0.83-0.09,1.33v0.83c0.17,0.03,0.33,0.04,0.6,0.04h0.35c0.36,0,0.79,0,0.97-0.2c0.15-0.16,0.21-0.32,0.31-0.57
			h0.3c-0.04,0.42-0.06,0.72-0.06,1.02c0,0.32,0.01,0.6,0.05,1.02h-0.3c-0.09-0.26-0.15-0.45-0.31-0.61
			c-0.16-0.16-0.61-0.16-0.96-0.16h-0.35c-0.27,0-0.42,0.01-0.6,0.04v1.08c0,0.5,0.03,0.97,0.15,1.24c0.09,0.2,0.53,0.28,0.97,0.35
			v0.3c-0.45-0.04-1.08-0.05-1.64-0.05c-0.56,0-1.07,0.01-1.51,0.05v-0.3c0.46-0.09,0.76-0.15,0.84-0.35
			c0.12-0.27,0.15-0.74,0.15-1.24V31.68L170.6,31.68z M162.88,32.61c0,1.49,0.61,3.04,2.22,3.04c1.49,0,2.22-1.1,2.22-2.59
			c0-1.49-0.61-2.87-2.22-2.87C163.61,30.19,162.88,31.12,162.88,32.61L162.88,32.61z M165.22,29.67c2.24,0,3.27,1.65,3.27,3.27
			c0,1.86-1.77,3.24-3.51,3.24c-2.23,0-3.26-1.83-3.26-3.44C161.71,30.87,163.49,29.67,165.22,29.67L165.22,29.67z M240.03,18.81
			c0.02-0.51,0.05-0.88,0.05-1.15c0-0.26-0.04-0.63-0.15-0.81c-0.13-0.18-0.52-0.27-0.98-0.37v-0.3c0.45,0.05,0.88,0.05,1.32,0.05
			c0.35,0,0.73-0.04,0.93-0.05c0.32,0.84,0.46,1.17,0.78,1.87l0.88,1.93c0.16,0.35,0.26,0.58,0.36,0.77h0.05
			c0.1-0.19,0.2-0.4,0.32-0.68l0.77-1.68c0.32-0.72,0.61-1.37,0.89-2.19c0.26,0.02,0.71,0.04,0.97,0.04c0.43,0,0.88-0.01,1.21-0.05
			v0.3c-0.46,0.1-0.84,0.19-0.97,0.37c-0.11,0.18-0.11,0.67-0.11,0.81c0,0.15,0.02,0.66,0.04,1.03l0.09,1.62
			c0.02,0.61,0.1,1.22,0.22,1.49c0.09,0.2,0.39,0.24,0.85,0.35v0.3c-0.45-0.04-0.96-0.05-1.51-0.05c-0.56,0-1.19,0.01-1.64,0.05
			v-0.3c0.46-0.1,0.87-0.14,0.97-0.35c0.07-0.16,0.1-0.4,0.1-0.62c0-0.19-0.01-0.49-0.03-0.87l-0.06-1.62
			c-0.01-0.33-0.05-0.77-0.06-1.12h-0.05c-0.19,0.46-0.34,0.81-0.46,1.08l-0.98,2.12c-0.44,0.97-0.61,1.43-0.71,1.66h-0.3
			c-0.17-0.43-0.46-1.07-0.67-1.51l-1.08-2.35c-0.22-0.5-0.27-0.66-0.4-1.01h-0.05c-0.03,0.36-0.07,0.81-0.09,1.24l-0.05,1.37
			c-0.01,0.25-0.02,0.63-0.02,0.91c0,0.26,0,0.53,0.07,0.71c0.09,0.2,0.5,0.25,0.96,0.35v0.3c-0.45-0.05-0.87-0.05-1.43-0.05
			c-0.56,0-0.88,0-1.33,0.05v-0.3c0.46-0.11,0.87-0.15,0.97-0.35c0.14-0.27,0.24-0.94,0.26-1.61L240.03,18.81L240.03,18.81z
			 M231.55,18.06c0-0.5-0.02-0.97-0.15-1.24c-0.09-0.2-0.39-0.24-0.84-0.35v-0.3c0.45,0.04,0.96,0.05,1.51,0.05
			c0.56,0,1.07-0.01,1.52-0.05v0.3c-0.46,0.11-0.76,0.15-0.84,0.35c-0.12,0.27-0.15,0.75-0.15,1.24v2.11c0,1.23,0.53,1.89,1.64,1.89
			c1.85,0,2.16-1.27,2.16-2.63v-1.37c0-0.5-0.02-0.97-0.15-1.24c-0.09-0.2-0.38-0.24-0.84-0.35v-0.3c0.32,0.04,0.71,0.05,1.27,0.05
			c0.56,0,0.94-0.01,1.26-0.05v0.3c-0.46,0.11-0.76,0.15-0.84,0.35c-0.12,0.27-0.15,0.75-0.15,1.24v1.37c0,1.75-0.57,3.13-2.71,3.13
			c-2.21,0-2.68-1.12-2.68-2.38V18.06L231.55,18.06z M226.61,19.43c-0.27,0-0.42,0.01-0.6,0.04v1.08c0,0.5,0.01,0.88,0.06,1.27
			c0.28,0.06,0.81,0.07,1.25,0.07c0.37,0,0.98-0.02,1.2-0.17c0.22-0.15,0.45-0.45,0.71-0.99h0.32c-0.12,0.57-0.21,1.14-0.26,1.71
			c-0.51-0.04-1.68-0.05-2.54-0.05h-1.18c-0.31,0-1.16,0.01-1.6,0.05v-0.3c0.46-0.11,0.75-0.15,0.84-0.35
			c0.14-0.27,0.15-0.74,0.15-1.24v-2.48c0-0.5-0.03-0.97-0.15-1.24c-0.09-0.2-0.38-0.24-0.84-0.35v-0.3
			c0.45,0.04,1.27,0.05,1.58,0.05h0.43c0.75,0,2.14-0.05,3.3-0.05c-0.11,0.48-0.22,1.09-0.27,1.47h-0.3
			c-0.06-0.31-0.13-0.58-0.27-0.76c-0.16-0.2-0.68-0.2-1.06-0.2c-0.37,0-0.61,0-1.29,0.05c-0.07,0.22-0.09,0.83-0.09,1.33v0.83
			c0.17,0.02,0.34,0.04,0.6,0.04h0.35c0.36,0,0.79,0,0.97-0.2c0.15-0.16,0.21-0.31,0.31-0.57h0.3c-0.05,0.45-0.06,0.72-0.06,1.02
			c0,0.32,0,0.57,0.05,1.02h-0.3c-0.09-0.26-0.15-0.45-0.31-0.61c-0.16-0.16-0.61-0.16-0.96-0.16H226.61L226.61,19.43z
			 M218.44,20.62h0.32c0.12,0.41,0.32,0.75,0.53,0.97c0.24,0.26,0.71,0.47,1.34,0.47c0.57,0,1.23-0.24,1.23-0.93
			c0-0.73-0.41-0.96-1.19-1.29l-0.83-0.36c-0.88-0.39-1.24-0.95-1.24-1.62c0-1.3,1.2-1.81,2.11-1.81c0.75,0,1.29,0.2,1.86,0.32
			c-0.04,0.33-0.04,0.49-0.04,0.71c0,0.3,0.01,0.51,0.02,0.78h-0.32c-0.1-0.4-0.18-0.68-0.45-0.95c-0.25-0.25-0.72-0.37-1.08-0.37
			c-0.58,0-1.14,0.26-1.14,0.93c0,0.65,0.32,0.89,0.74,1.07l0.85,0.35c0.95,0.4,1.7,0.87,1.7,1.83c0,1.4-1.45,1.84-2.22,1.84
			c-0.91,0-1.44-0.18-2.05-0.24C218.57,21.53,218.48,20.92,218.44,20.62L218.44,20.62z M211.07,18.06c0-0.5-0.02-0.97-0.15-1.24
			c-0.08-0.2-0.38-0.24-0.84-0.35v-0.3c0.45,0.04,0.96,0.05,1.51,0.05c0.56,0,1.07-0.01,1.51-0.05v0.3
			c-0.46,0.11-0.76,0.15-0.84,0.35c-0.13,0.27-0.15,0.75-0.15,1.24v2.11c0,1.23,0.53,1.89,1.64,1.89c1.85,0,2.16-1.27,2.16-2.63
			v-1.37c0-0.5-0.03-0.97-0.15-1.24c-0.09-0.2-0.38-0.24-0.84-0.35v-0.3c0.32,0.04,0.71,0.05,1.27,0.05c0.56,0,0.94-0.01,1.27-0.05
			v0.3c-0.46,0.11-0.76,0.15-0.84,0.35c-0.12,0.27-0.15,0.75-0.15,1.24v1.37c0,1.75-0.57,3.13-2.71,3.13
			c-2.21,0-2.68-1.12-2.68-2.38V18.06L211.07,18.06z M199.13,16.2c0.01-0.35,0.04-0.63,0.04-0.91c0-0.51-0.06-0.73-0.17-0.91
			c-0.12-0.19-0.62-0.3-1.08-0.4v-0.32c0.45,0.05,1.01,0.08,1.44,0.08c0.35,0,0.96-0.06,1.15-0.08c0.47,1.12,0.81,1.83,1.22,2.75
			l1.01,2.27c0.39,0.87,0.56,1.22,0.77,1.64h0.05c0.2-0.38,0.5-1.01,0.82-1.75l0.89-2.02c0.47-1.07,0.88-2,1.24-2.87
			c0.26,0.02,0.57,0.06,0.95,0.06c0.43,0,1.07-0.04,1.51-0.08v0.32c-0.46,0.1-0.94,0.21-1.07,0.4c-0.11,0.17-0.14,0.52-0.14,1.03
			c0,0.28,0,0.55,0.01,0.78l0.17,3.72c0.02,0.62,0.07,1.54,0.23,1.81c0.11,0.2,0.49,0.28,0.95,0.4v0.32
			c-0.45-0.04-1.14-0.07-1.7-0.07c-0.56,0-1.38,0.04-1.83,0.07v-0.32c0.46-0.1,0.94-0.21,1.07-0.4c0.1-0.16,0.14-0.6,0.14-1.07
			c0-0.31-0.01-0.47-0.03-0.74l-0.15-3.72c-0.01-0.31-0.02-0.72-0.06-1.07h-0.05c-0.29,0.6-0.53,1.19-0.8,1.78l-1.61,3.65
			c-0.45,1-0.68,1.54-0.83,1.9h-0.19c-0.21-0.56-0.52-1.24-0.77-1.81l-1.65-3.69c-0.36-0.81-0.67-1.47-0.83-1.83h-0.05
			c-0.02,0.36-0.06,0.77-0.07,1.07l-0.12,3.72c-0.01,0.22-0.01,0.39-0.01,0.66c0,0.51,0.02,0.98,0.14,1.15
			c0.12,0.19,0.61,0.3,1.07,0.4v0.32c-0.45-0.05-1.04-0.07-1.6-0.07c-0.56,0-1.06,0.02-1.5,0.07v-0.32c0.46-0.11,0.96-0.2,1.07-0.4
			c0.16-0.27,0.2-1.17,0.22-1.81L199.13,16.2L199.13,16.2z M189.82,19.43c-0.27,0-0.42,0.01-0.59,0.04v1.08
			c0,0.5,0.01,0.88,0.06,1.27c0.28,0.06,0.81,0.07,1.25,0.07c0.37,0,0.98-0.02,1.21-0.17c0.22-0.15,0.45-0.45,0.71-0.99h0.32
			c-0.13,0.57-0.21,1.14-0.26,1.71c-0.51-0.04-1.68-0.05-2.55-0.05h-1.18c-0.31,0-1.16,0.01-1.6,0.05v-0.3
			c0.46-0.11,0.75-0.15,0.84-0.35c0.14-0.27,0.15-0.74,0.15-1.24v-2.48c0-0.5-0.02-0.97-0.15-1.24c-0.09-0.2-0.39-0.24-0.84-0.35
			v-0.3c0.45,0.04,1.27,0.05,1.58,0.05h0.43c0.75,0,2.13-0.05,3.3-0.05c-0.11,0.48-0.22,1.09-0.27,1.47h-0.3
			c-0.06-0.31-0.12-0.58-0.27-0.76c-0.16-0.2-0.68-0.2-1.05-0.2c-0.37,0-0.61,0-1.29,0.05c-0.07,0.22-0.08,0.83-0.08,1.33v0.83
			c0.17,0.02,0.34,0.04,0.59,0.04h0.35c0.36,0,0.79,0,0.97-0.2c0.15-0.16,0.21-0.31,0.31-0.57h0.3c-0.05,0.45-0.06,0.72-0.06,1.02
			c0,0.32,0,0.57,0.05,1.02h-0.3c-0.09-0.26-0.15-0.45-0.31-0.61c-0.16-0.16-0.61-0.16-0.96-0.16H189.82L189.82,19.43z
			 M183.04,18.06c0-0.5-0.01-0.86-0.06-1.32c-0.24-0.03-0.57-0.03-0.78-0.03c-0.21,0-0.61,0.01-0.87,0.2
			c-0.2,0.15-0.28,0.4-0.45,0.85h-0.32c0.08-0.5,0.13-1.1,0.15-1.62c0.45,0.04,1.14,0.08,1.89,0.08h1.94c0.74,0,1.33-0.02,2.04-0.08
			c-0.1,0.63-0.16,0.97-0.22,1.62h-0.32c-0.04-0.3-0.15-0.73-0.31-0.87c-0.16-0.14-0.41-0.18-0.89-0.18c-0.14,0-0.51,0-0.66,0.03
			c-0.05,0.47-0.07,0.82-0.07,1.32v2.48c0,0.5,0.02,0.97,0.15,1.24c0.08,0.2,0.51,0.25,0.97,0.35v0.3
			c-0.45-0.04-1.08-0.05-1.64-0.05c-0.56,0-1.19,0.01-1.64,0.05v-0.3c0.46-0.1,0.88-0.15,0.97-0.35c0.13-0.27,0.15-0.74,0.15-1.24
			V18.06L183.04,18.06z M177.4,20.01c0.32,0,0.51,0,0.68-0.03l-0.92-2.22h-0.05l-0.88,2.22c0.19,0.03,0.47,0.03,0.8,0.03H177.4
			L177.4,20.01z M178.31,20.53c-0.31-0.02-0.58-0.02-0.91-0.02h-0.37c-0.32,0-0.7,0-1.01,0.02l-0.26,0.66
			c-0.07,0.18-0.17,0.42-0.17,0.57c0,0.24,0.46,0.3,0.86,0.4v0.27c-0.31-0.04-0.76-0.08-1.42-0.08c-0.51,0-0.81,0.05-1.06,0.08
			v-0.27c0.24-0.04,0.47-0.1,0.66-0.2c0.25-0.14,0.4-0.55,0.55-0.89l2.05-5.02h0.3l2.19,5.08c0.15,0.34,0.25,0.6,0.38,0.73
			c0.14,0.14,0.42,0.24,0.71,0.3v0.27c-0.2-0.03-0.92-0.05-1.27-0.05c-0.79,0-1.29,0.02-1.58,0.05v-0.27
			c0.36-0.07,0.83-0.17,0.83-0.4c0-0.15-0.13-0.4-0.2-0.56L178.31,20.53L178.31,20.53z M170.7,18.06c0-0.5-0.01-0.86-0.06-1.32
			c-0.24-0.03-0.57-0.03-0.78-0.03c-0.21,0-0.61,0.01-0.87,0.2c-0.2,0.15-0.28,0.4-0.45,0.85h-0.32c0.08-0.5,0.12-1.1,0.15-1.62
			c0.45,0.04,1.14,0.08,1.89,0.08h1.94c0.75,0,1.33-0.02,2.04-0.08c-0.1,0.63-0.16,0.97-0.22,1.62h-0.32
			c-0.04-0.3-0.15-0.73-0.31-0.87c-0.16-0.14-0.41-0.18-0.89-0.18c-0.14,0-0.51,0-0.66,0.03c-0.05,0.47-0.07,0.82-0.07,1.32v2.48
			c0,0.5,0.02,0.97,0.15,1.24c0.08,0.2,0.51,0.25,0.97,0.35v0.3c-0.45-0.04-1.08-0.05-1.64-0.05c-0.56,0-1.19,0.01-1.64,0.05v-0.3
			c0.46-0.1,0.88-0.15,0.97-0.35c0.12-0.27,0.15-0.74,0.15-1.24V18.06L170.7,18.06z M161.71,20.2h0.32
			c0.13,0.41,0.33,0.87,0.53,1.14c0.26,0.35,0.98,0.72,2.11,0.72c0.94,0,1.75-0.48,1.75-1.55c0-1.11-0.95-1.52-1.94-1.94l-0.83-0.36
			c-1.09-0.47-1.79-1.12-1.79-2.16c0-1.68,1.39-2.51,2.79-2.51c0.99,0,1.75,0.34,2.52,0.47c-0.06,0.39-0.06,0.57-0.06,0.8
			c0,0.3,0.02,0.72,0.05,0.99h-0.32c-0.11-0.4-0.3-0.92-0.52-1.17c-0.35-0.4-1.07-0.57-1.68-0.57c-1.08,0-1.74,0.56-1.74,1.6
			c0,1.02,0.71,1.33,1.39,1.62l0.84,0.35c1.17,0.49,2.32,1.02,2.32,2.47c0,1.9-1.73,2.48-2.87,2.48c-0.91,0-1.81-0.31-2.74-0.39
			C161.84,21.4,161.74,20.5,161.71,20.2L161.71,20.2z M231.95,5.06c0-0.62,0-1.47-0.15-1.74c-0.12-0.24-0.63-0.4-0.97-0.47v-0.3
			c0.2,0.04,0.66,0.05,1.09,0.05c0.09,0,0.44,0,0.72-0.05c0.6,0.7,1.13,1.28,1.72,1.9l1.27,1.33c0.41,0.44,0.74,0.78,1.05,1.08h0.05
			V4.44c0-0.5-0.02-0.97-0.15-1.24c-0.09-0.2-0.51-0.25-0.97-0.35v-0.3c0.32,0.04,0.77,0.05,1.33,0.05c0.56,0,0.95-0.01,1.28-0.05
			v0.3c-0.46,0.11-0.76,0.15-0.84,0.35c-0.13,0.28-0.15,0.75-0.15,1.24v1.86c0,0.62,0,1.99,0.04,2.51h-0.3
			c-0.56-0.65-1.07-1.23-1.6-1.79l-1.48-1.55c-0.57-0.61-0.92-0.98-1.4-1.53h-0.05v2.98c0,0.5,0.02,0.97,0.15,1.24
			c0.09,0.2,0.51,0.25,0.97,0.35v0.3c-0.32-0.04-0.83-0.05-1.39-0.05c-0.56,0-1.02,0.01-1.34,0.05v-0.3
			c0.46-0.1,0.88-0.15,0.97-0.35c0.12-0.27,0.15-0.74,0.15-1.24V5.06L231.95,5.06z M227.73,5.06c0-0.62-0.02-1.59-0.15-1.86
			c-0.08-0.2-0.51-0.25-0.97-0.35v-0.3c0.45,0.04,1.07,0.05,1.63,0.05c0.56,0,1.2-0.01,1.65-0.05v0.3c-0.46,0.1-0.88,0.15-0.97,0.35
			c-0.12,0.28-0.15,1.24-0.15,1.86v1.24c0,0.62,0.02,1.59,0.15,1.86c0.09,0.2,0.51,0.25,0.97,0.35v0.3
			c-0.45-0.04-1.09-0.05-1.65-0.05c-0.56,0-1.18,0.01-1.63,0.05v-0.3c0.46-0.1,0.88-0.15,0.97-0.35c0.13-0.27,0.15-1.24,0.15-1.86
			V5.06L227.73,5.06z M221.49,5.55l1.66-1.57c0.56-0.53,0.76-0.74,0.76-0.87c0-0.12-0.3-0.2-0.67-0.26v-0.3
			c0.42,0.04,0.72,0.05,1.09,0.05c0.47,0,0.97-0.01,1.38-0.05v0.3c-0.81,0.12-0.87,0.29-1.81,1.13l-1.35,1.22l1.99,2.16
			c0.73,0.8,0.93,0.93,1.58,1.16v0.3c-0.31-0.04-0.71-0.06-0.96-0.06c-0.25,0-0.46,0.01-0.78,0.06c-0.4-0.48-0.68-0.82-0.92-1.09
			L221.49,5.55L221.49,5.55z M221.35,6.93c0,0.5,0.03,0.97,0.15,1.24c0.09,0.2,0.39,0.24,0.85,0.35v0.3
			c-0.45-0.04-1.08-0.05-1.52-0.05c-0.43,0-1.07,0.01-1.51,0.05v-0.3c0.46-0.11,0.76-0.15,0.85-0.35c0.12-0.27,0.15-0.74,0.15-1.24
			V4.44c0-0.5-0.03-0.97-0.15-1.24c-0.09-0.2-0.39-0.23-0.85-0.35v-0.3c0.45,0.04,1.08,0.05,1.51,0.05c0.44,0,0.95-0.01,1.39-0.05
			v0.3c-0.46,0.11-0.63,0.15-0.72,0.35c-0.12,0.28-0.15,0.75-0.15,1.24V6.93L221.35,6.93z M211.69,4.44c0-0.5-0.02-0.99-0.15-1.26
			c-0.09-0.2-0.39-0.21-0.85-0.33v-0.3c0.45,0.04,0.96,0.05,1.52,0.05c0.56,0,1.07-0.01,1.51-0.05v0.3
			c-0.46,0.11-0.76,0.12-0.85,0.33c-0.12,0.27-0.15,0.77-0.15,1.26v0.82c0.25,0.04,0.72,0.05,1.24,0.05h1.07
			c0.52,0,0.99-0.01,1.24-0.05V4.44c0-0.5-0.02-0.99-0.15-1.26c-0.08-0.2-0.38-0.21-0.84-0.33v-0.3c0.45,0.04,0.96,0.05,1.51,0.05
			c0.56,0,1.07-0.01,1.51-0.05v0.3c-0.46,0.11-0.76,0.12-0.84,0.33c-0.12,0.27-0.15,0.77-0.15,1.26v2.48c0,0.5,0.03,0.97,0.15,1.24
			c0.09,0.2,0.39,0.26,0.84,0.35v0.3c-0.45-0.04-0.96-0.05-1.51-0.05c-0.56,0-1.07,0.01-1.51,0.05v-0.3
			c0.46-0.08,0.76-0.15,0.84-0.35c0.13-0.27,0.15-0.74,0.15-1.24V5.86c-0.25-0.04-0.72-0.05-1.24-0.05h-1.07
			c-0.52,0-0.99,0.01-1.24,0.05v1.07c0,0.5,0.03,0.97,0.15,1.24c0.09,0.2,0.39,0.26,0.85,0.35v0.3c-0.45-0.04-0.96-0.05-1.51-0.05
			c-0.56,0-1.07,0.01-1.52,0.05v-0.3c0.46-0.08,0.76-0.15,0.85-0.35c0.12-0.27,0.15-0.74,0.15-1.24V4.44L211.69,4.44z M205.16,7
			h0.32c0.12,0.41,0.32,0.74,0.53,0.97c0.24,0.26,0.71,0.47,1.34,0.47c0.57,0,1.23-0.24,1.23-0.93c0-0.73-0.41-0.96-1.19-1.29
			l-0.83-0.36c-0.88-0.38-1.24-0.94-1.24-1.61c0-1.3,1.2-1.81,2.11-1.81c0.74,0,1.29,0.2,1.86,0.32c-0.04,0.34-0.04,0.49-0.04,0.71
			c0,0.3,0.01,0.51,0.02,0.78h-0.32c-0.1-0.4-0.19-0.68-0.45-0.95c-0.25-0.25-0.72-0.37-1.08-0.37c-0.58,0-1.14,0.26-1.14,0.93
			c0,0.65,0.32,0.89,0.74,1.07l0.84,0.35c0.95,0.4,1.7,0.87,1.7,1.83c0,1.4-1.45,1.84-2.22,1.84c-0.91,0-1.44-0.19-2.05-0.24
			C205.28,7.91,205.2,7.3,205.16,7L205.16,7z M197.79,4.44c0-0.5-0.03-0.97-0.15-1.24c-0.09-0.2-0.39-0.23-0.85-0.35v-0.3
			c0.45,0.04,0.96,0.05,1.52,0.05c0.56,0,1.07-0.01,1.52-0.05v0.3c-0.46,0.11-0.76,0.15-0.85,0.35c-0.12,0.28-0.15,0.75-0.15,1.24
			v2.11c0,1.23,0.53,1.89,1.64,1.89c1.85,0,2.16-1.27,2.16-2.63V4.44c0-0.5-0.02-0.97-0.15-1.24c-0.09-0.2-0.38-0.23-0.85-0.35v-0.3
			c0.32,0.04,0.71,0.05,1.27,0.05c0.56,0,0.94-0.01,1.27-0.05v0.3c-0.46,0.11-0.76,0.15-0.84,0.35c-0.12,0.28-0.15,0.75-0.15,1.24
			v1.37c0,1.75-0.57,3.13-2.71,3.13c-2.21,0-2.68-1.12-2.68-2.39V4.44L197.79,4.44z M191.58,6.31c0,0.62,0,1.54,0.17,1.81
			c0.12,0.18,0.61,0.28,1.19,0.4v0.32c-0.57-0.04-1.39-0.07-1.95-0.07c-0.56,0-1.25,0.04-1.7,0.07V8.52
			c0.46-0.11,0.82-0.21,0.94-0.4c0.17-0.27,0.17-1.19,0.17-1.81V2.58c0-0.62,0-1.54-0.17-1.81c-0.12-0.19-0.48-0.29-0.94-0.4V0.05
			c0.45,0.04,1.14,0.08,1.58,0.08c0.43,0,1.29-0.12,1.74-0.12c1.99,0,3.32,0.95,3.32,2.64c0,1.23-0.91,2.62-3.02,2.62
			c-0.37,0-0.7-0.08-0.96-0.14V4.8c0.22,0.04,0.42,0.05,0.78,0.05c1.89,0,1.9-1.52,1.9-2.13c0-2.09-1.17-2.2-2.03-2.2
			c-0.22,0-0.67,0.05-0.98,0.15c-0.04,0.33-0.05,1.29-0.05,1.91V6.31L191.58,6.31z M181.38,5.81c-0.27,0-0.42,0.01-0.6,0.04v1.08
			c0,0.5,0.01,0.88,0.06,1.26c0.28,0.06,0.81,0.08,1.25,0.08c0.37,0,0.98-0.03,1.2-0.17c0.22-0.15,0.45-0.45,0.71-0.99h0.32
			c-0.13,0.57-0.21,1.14-0.26,1.71c-0.51-0.04-1.67-0.05-2.55-0.05h-1.18c-0.31,0-1.16,0.01-1.6,0.05v-0.3
			c0.46-0.11,0.74-0.15,0.84-0.35c0.14-0.27,0.15-0.74,0.15-1.24V4.44c0-0.5-0.02-0.97-0.15-1.24c-0.09-0.2-0.39-0.23-0.84-0.35
			v-0.3c0.45,0.04,1.27,0.05,1.58,0.05h0.44c0.75,0,2.13-0.05,3.3-0.05c-0.11,0.48-0.22,1.09-0.27,1.47h-0.3
			c-0.06-0.31-0.12-0.58-0.27-0.76c-0.16-0.2-0.68-0.2-1.06-0.2c-0.37,0-0.61,0-1.29,0.05c-0.07,0.22-0.09,0.83-0.09,1.33v0.83
			c0.17,0.02,0.33,0.04,0.6,0.04h0.35c0.36,0,0.79,0,0.97-0.2c0.15-0.16,0.21-0.31,0.31-0.57h0.3c-0.05,0.45-0.06,0.72-0.06,1.02
			c0,0.32,0,0.57,0.05,1.02h-0.3c-0.09-0.26-0.15-0.45-0.31-0.61c-0.16-0.16-0.61-0.16-0.96-0.16H181.38L181.38,5.81z M171.12,4.44
			c0-0.5-0.02-0.99-0.15-1.26c-0.09-0.2-0.39-0.21-0.84-0.33v-0.3c0.45,0.04,0.96,0.05,1.52,0.05c0.56,0,1.07-0.01,1.51-0.05v0.3
			c-0.46,0.11-0.76,0.12-0.84,0.33c-0.12,0.27-0.15,0.77-0.15,1.26v0.82c0.25,0.04,0.72,0.05,1.24,0.05h1.07
			c0.52,0,0.99-0.01,1.24-0.05V4.44c0-0.5-0.02-0.99-0.15-1.26c-0.09-0.2-0.38-0.21-0.84-0.33v-0.3c0.45,0.04,0.95,0.05,1.51,0.05
			c0.56,0,1.07-0.01,1.52-0.05v0.3c-0.46,0.11-0.76,0.12-0.85,0.33c-0.12,0.27-0.15,0.77-0.15,1.26v2.48c0,0.5,0.02,0.97,0.15,1.24
			c0.09,0.2,0.39,0.26,0.85,0.35v0.3c-0.45-0.04-0.96-0.05-1.52-0.05c-0.56,0-1.07,0.01-1.51,0.05v-0.3
			c0.46-0.08,0.75-0.15,0.84-0.35c0.13-0.27,0.15-0.74,0.15-1.24V5.86c-0.25-0.04-0.72-0.05-1.24-0.05h-1.07
			c-0.52,0-0.99,0.01-1.24,0.05v1.07c0,0.5,0.02,0.97,0.15,1.24c0.09,0.2,0.39,0.26,0.84,0.35v0.3c-0.45-0.04-0.95-0.05-1.51-0.05
			c-0.56,0-1.07,0.01-1.52,0.05v-0.3c0.46-0.08,0.76-0.15,0.84-0.35c0.12-0.27,0.15-0.74,0.15-1.24V4.44L171.12,4.44z M164.79,2.58
			c0-0.62,0-1.39-0.06-1.85c-0.48-0.04-0.74-0.04-1.21-0.04c-0.46,0-1.15,0.09-1.44,0.32c-0.2,0.16-0.4,0.72-0.55,1.07h-0.32
			c0.1-0.62,0.15-1.53,0.2-2.04c0.45,0.04,1.51,0.08,2.51,0.08h2.9c1,0,1.48-0.01,2.68-0.08c-0.1,0.63-0.19,1.39-0.25,2.04h-0.32
			c-0.05-0.3-0.16-0.94-0.31-1.09c-0.16-0.16-0.66-0.3-1.52-0.3c-0.39,0-0.68,0.01-1.08,0.04c-0.07,0.47-0.07,1.23-0.07,1.85v3.72
			c0,0.62,0,1.54,0.17,1.81c0.12,0.18,0.61,0.3,1.07,0.4v0.32c-0.45-0.04-1.27-0.07-1.82-0.07c-0.56,0-1.38,0.04-1.83,0.07V8.52
			c0.46-0.1,0.94-0.21,1.07-0.4c0.17-0.27,0.17-1.19,0.17-1.81V2.58L164.79,2.58z"/>
	</defs>
	<clipPath id="SVGID_3_">
		<use xlink:href="#SVGID_1_"  style="overflow:visible;"/>
	</clipPath>
	<clipPath id="SVGID_4_" class="st0">
		<use xlink:href="#SVGID_2_"  style="overflow:visible;"/>
	</clipPath>
	<rect x="156.92" y="-4.29" class="st1" width="94.91" height="44.75"/>
</g>
<rect x="5.05" class="st2" width="243.68" height="47.19"/>
<path class="st3" d="M91.13,19.73l-13.06-2.78l-13.12,2.78l-0.14-0.79l13.26-2.88l13.2,2.88L91.13,19.73L91.13,19.73z M88.86,39.31
	c0,0-0.01-1.34-0.01-7.33c0-1.06,0.05-6.58,0.05-6.58h1.23c0,0,0.06,5.61,0.06,6.61c0,5.98-0.02,7.3-0.02,7.3H88.86L88.86,39.31z
	 M84.27,39.31c0,0-0.02-1.34-0.02-7.33c0-1.06,0.05-6.58,0.05-6.58h1.23c0,0,0.06,5.61,0.06,6.61c0,5.98-0.02,7.3-0.02,7.3H84.27
	L84.27,39.31z M79.69,39.31c0,0-0.02-1.34-0.02-7.33c0-1.06,0.05-6.58,0.05-6.58h1.23c0,0,0.06,5.61,0.06,6.61
	c0,5.98-0.02,7.3-0.02,7.3H79.69L79.69,39.31z M75.1,39.31c0,0-0.01-1.34-0.01-7.33c0-1.06,0.05-6.58,0.05-6.58h1.23
	c0,0,0.05,5.61,0.05,6.61c0,5.98-0.01,7.3-0.01,7.3H75.1L75.1,39.31z M70.52,39.31c0,0-0.02-1.34-0.02-7.33
	c0-1.06,0.05-6.58,0.05-6.58h1.23c0,0,0.06,5.61,0.06,6.61c0,5.98-0.02,7.3-0.02,7.3H70.52L70.52,39.31z M65.93,39.31
	c0,0-0.02-1.34-0.02-7.33c0-1.06,0.05-6.58,0.05-6.58h1.23c0,0,0.06,5.61,0.06,6.61c0,5.98-0.02,7.3-0.02,7.3H65.93L65.93,39.31z
	 M59.82,9.23h36.32V0.07L150.83,0v35.81l-54.69,0.07v9.81H59.82v-9.81H5.05V0.07h54.77V9.23L59.82,9.23z"/>
</svg>
