<svg width="46" height="45" viewBox="0 0 46 45" fill="none" xmlns="http://www.w3.org/2000/svg">
<path d="M22.7954 1.00465C18.4218 1.01597 14.1498 2.31249 10.5196 4.73026C6.88932 7.14803 4.06388 10.5784 2.40055 14.5877C0.737227 18.597 0.310711 23.0051 1.17496 27.2545C2.0392 31.5039 4.15539 35.4038 7.2559 38.4611C10.3564 41.5183 14.302 43.5956 18.5937 44.4302C22.8855 45.2648 27.3305 44.8192 31.3669 43.1499C35.4033 41.4805 38.8496 38.6623 41.2701 35.0517C43.6906 31.441 44.9765 27.2001 44.9653 22.8652C44.9503 17.0522 42.6061 11.4834 38.4484 7.38374C34.2907 3.2841 28.6602 0.989471 22.7954 1.00465V1.00465ZM22.8127 7.67496C24.3536 7.67531 25.8599 8.12856 27.1409 8.9774C28.4219 9.82623 29.4202 11.0325 30.0095 12.4437C30.5988 13.855 30.7527 15.4077 30.4516 16.9056C30.1506 18.4035 29.4082 19.7794 28.3183 20.8591C27.2283 21.9389 25.8399 22.674 24.3284 22.9717C22.817 23.2693 21.2505 23.116 19.827 22.5312C18.4035 21.9464 17.1869 20.9564 16.3312 19.6862C15.4754 18.4161 15.0189 16.923 15.0193 15.3956C15.0186 14.3788 15.2207 13.3718 15.614 12.4326C16.0073 11.4934 16.584 10.6405 17.311 9.92298C18.038 9.20546 18.9009 8.63747 19.8502 8.25166C20.7994 7.86585 21.8162 7.66983 22.8422 7.67488L22.8127 7.67496ZM31.5805 26.1217C30.6353 27.0901 29.4874 27.8413 28.2175 28.3222C26.9838 28.7638 25.6995 29.0518 24.3942 29.1796C24.5937 29.391 24.6825 29.5003 24.8081 29.6169C26.5817 31.3804 28.37 33.1365 30.1363 34.8999C30.4189 35.1524 30.6111 35.489 30.6839 35.8591C30.7566 36.2292 30.706 36.6128 30.5397 36.9519C30.37 37.31 30.1002 37.6123 29.7623 37.8229C29.4245 38.0336 29.0327 38.1438 28.6336 38.1404C28.1522 38.0987 27.7055 37.8748 27.3863 37.5153C26.0413 36.1818 24.6816 34.8775 23.3661 33.522C22.9818 33.1285 22.7977 33.202 22.4595 33.5244C21.1215 34.9014 19.7613 36.2565 18.3864 37.6043C18.1331 37.8871 17.7913 38.0773 17.4159 38.1445C17.0405 38.2117 16.6532 38.152 16.3161 37.975C15.9498 37.8079 15.6402 37.5392 15.4247 37.2013C15.2093 36.8635 15.0973 36.4709 15.1023 36.0713C15.1427 35.5759 15.3738 35.1149 15.7476 34.7838C17.4975 33.0502 19.2448 31.3093 20.9897 29.561C21.1073 29.4438 21.2102 29.3194 21.3793 29.1436C19.0726 29.0363 16.8462 28.2708 14.9681 26.9392C14.7391 26.7571 14.5028 26.5897 14.2885 26.393C13.9323 26.087 13.7023 25.6617 13.6425 25.1982C13.5827 24.7347 13.6974 24.2657 13.9646 23.8807C14.2318 23.4958 14.6328 23.2219 15.0908 23.1115C15.5489 23.0011 16.0319 23.062 16.4476 23.2824C16.6312 23.3727 16.8088 23.4747 16.9791 23.5878C18.6887 24.7322 20.7014 25.3503 22.7644 25.3644C24.8273 25.3786 26.8485 24.7882 28.5741 23.6674C28.9039 23.3957 29.2876 23.1956 29.7003 23.08C30.08 22.9716 30.4853 22.9911 30.8525 23.1356C31.2198 23.2801 31.5282 23.5414 31.7294 23.8784C31.9892 24.2023 32.1204 24.6093 32.0984 25.0225C32.0764 25.4357 31.9027 25.8266 31.6099 26.1217L31.5805 26.1217Z" fill="white"/>
</svg>
