<?xml version="1.0" encoding="UTF-8" standalone="no"?>
<svg
   xmlns:dc="http://purl.org/dc/elements/1.1/"
   xmlns:cc="http://creativecommons.org/ns#"
   xmlns:rdf="http://www.w3.org/1999/02/22-rdf-syntax-ns#"
   xmlns:svg="http://www.w3.org/2000/svg"
   xmlns="http://www.w3.org/2000/svg"
   viewBox="0 0 345.33334 258.66666"
   height="258.66666"
   width="345.33334"
   xml:space="preserve"
   id="svg2"
   version="1.1"><metadata
     id="metadata8"><rdf:RDF><cc:Work
         rdf:about=""><dc:format>image/svg+xml</dc:format><dc:type
           rdf:resource="http://purl.org/dc/dcmitype/StillImage" /></cc:Work></rdf:RDF></metadata><defs
     id="defs6"><clipPath
       id="clipPath18"
       clipPathUnits="userSpaceOnUse"><path
         id="path16"
         d="M 0,194 H 259 V 0 H 0 Z" /></clipPath></defs><g
     transform="matrix(1.3333333,0,0,-1.3333333,0,258.66667)"
     id="g10"><g
       id="g12"><g
         clip-path="url(#clipPath18)"
         id="g14"><g
           transform="translate(98.6587,52.5488)"
           id="g20"><path
             id="path22"
             style="fill:#784a27;fill-opacity:1;fill-rule:nonzero;stroke:none"
             d="m 0,0 c -4.009,0 -7.659,3.217 -7.659,7.663 v 73.515 c 0,4.451 3.654,7.664 7.66,7.664 1.204,0 2.439,-0.29 3.617,-0.923 L 77.192,48.362 c 3.474,-1.867 3.453,-6.855 -0.036,-8.693 L 3.561,0.893 C 2.399,0.281 1.184,0 0,0 M 142.767,139.921 H -81.084 c -8.602,0 -15.575,-6.973 -15.575,-15.574 V -35.505 c 0,-8.601 6.973,-15.574 15.575,-15.574 h 223.851 c 8.602,0 15.574,6.973 15.574,15.574 v 159.852 c 0,8.601 -6.972,15.574 -15.574,15.574 M 0,-10 c 2.839,0 5.683,0.708 8.223,2.046 l 73.594,38.775 c 4.891,2.577 7.944,7.614 7.968,13.142 0.023,5.528 -2.988,10.589 -7.858,13.207 L 8.353,96.727 C 5.779,98.11 2.891,98.842 10e-4,98.842 -9.737,98.841 -17.659,90.917 -17.659,81.178 V 7.663 C -17.659,-2.076 -9.737,-10 0,-10 m 142.767,139.921 c 3.073,0 5.574,-2.501 5.574,-5.574 V -35.505 c 0,-3.073 -2.501,-5.574 -5.574,-5.574 H -81.084 c -3.074,0 -5.575,2.501 -5.575,5.574 v 159.852 c 0,3.073 2.501,5.574 5.575,5.574 h 223.851" /></g></g></g></g></svg>
