<svg xmlns="http://www.w3.org/2000/svg" viewBox="0 0 195 195">
  <g data-name="Layer 2">
    <path d="M195 0H0v195h195V0zm-76.64 86.9l-.1-2.37V51.09c.11-.34-.11-.16.48-.22H128v29.29c0 .6-.16 2.54.13 2.86a2.07 2.07 0 00.48 1.45h.07l.8.38c1.56.5 2.61-.38 3.34-.4l.3-.25h.08l1.17-.67c.4-.29 1.09-.68 1.22-1.06.25-.12 0 .06.33-.2s.13-.14.18-.26.1 0 .16-.37v-.48-30.28H146v39.37l-.09 1.62h-9.55a41.89 41.89 0 01-.1-4.42 12.59 12.59 0 01-2 1.54c-.06.23 0 .09-.29.31a17.49 17.49 0 01-6.61 2.94c-2 .38-4.77.33-6.5-.89-.85-.61-.93-1-1.31-1.18-.17-.52-.42-.62-.45-1.16l-.12-.16a6 6 0 01-.55-1.95zM56.83 98.5h81.34a15.56 15.56 0 0115.51 15.5v28.1a15.56 15.56 0 01-15.51 15.51H56.83a15.56 15.56 0 01-15.51-15.51V114a15.56 15.56 0 0115.51-15.5zm49.78 43.06v-17.94c1-.64 2-1.5 3.87-1 1.4.38 1.8 1.56 1.8 3.26v15.33c-.25 1.55-.91 2.19-2.72 2.07-1-.07-2.9-.76-2.93-1.72zm-6.91 6.05v-39.93h6.9V120.41a8.9 8.9 0 016.59-2.63 6.9 6.9 0 013.55 1.09 7.49 7.49 0 012.06 2.74 1.45 1.45 0 00.31.88c-.06.76.21 2.1.21 3.11v16.11a9.11 9.11 0 01-.65 3.19c-.17.18-.29.51-.48.77-.31.42-.39.38-.6.81l-.56.35a7.85 7.85 0 01-5.48 1 9.22 9.22 0 01-5-2.45v2.16l-6.91.06zm32.11-23.31c.21-.77.52-1.23 1.19-1.32.46-.5 1.69-.45 2.44-.32a2.16 2.16 0 011.69 1.12 13.15 13.15 0 01.41 5.16h-6a15.61 15.61 0 01.23-4.63zm-1.17-6.3c.82-.13 1.52-.38 2.45-.48a20.09 20.09 0 012.91-.08c4.23.28 7 2 8.18 5.39l.49 2.1-.08 8.69-13.05-.06c0 1-.17 6.17.13 6.55a2 2 0 00.15 1.22 2.28 2.28 0 002.37 1.84c1.4.08 2.46-.16 3-1.23a4.41 4.41 0 00.36-1.82v-3.07h7v2.91l-.14 1.47-.71 2.46a5.89 5.89 0 00-.58.91c-.29.43-.53.56-.69 1-.69.21-1.74 2.27-7 2.56-5.63.31-7-1.68-7.88-1.82a4.87 4.87 0 00-.8-.83 4.14 4.14 0 00-.76-.75c-.2-.54-.53-.91-.79-1.49s-.36-1.09-.58-1.65l-.22-1.65v-14.38l.31-2.14a8.09 8.09 0 013-4.16 15.51 15.51 0 012.83-1.49zM73.5 143.43v-25.29h6.86v22.96c.14.84.29 1.25 1.06 1.45a3 3 0 002-.26c.86-.38 2.6-1.38 2.69-2.19v-22h6.86v29.41h-6.84v-3.09c-1.8 1.2-2.55 2.33-5.28 3.15-4.62 1.38-6-.92-6.41-1a7.88 7.88 0 01-.94-2.62v-.52zm-23.61-29.91l.08-5.86 23.62.07v5.75h-7.93v34.03l-7.73.06v-34.05h-8zM110.56 67v15.74l-.12 1.34a1.91 1.91 0 01-.31.94 5.23 5.23 0 01-.47 1.76c-.21.13-.15.41-.52.68-.05.38 0 .25-.24.61a4.53 4.53 0 01-.42.56 5.51 5.51 0 01-.95 1c-.23.28-.19.15-.4.49-.2 0-.12 0-.31.13l-.78.57a17.32 17.32 0 01-9.71 2.42 20.07 20.07 0 01-4.45-.46 15.39 15.39 0 01-1.88-.52 8.19 8.19 0 00-1.75-.66 5.62 5.62 0 00-1.25-.87l-1.14-1a4 4 0 01-1.17-1.11 8.52 8.52 0 01-.88-1.33l-.44-.75-.52-1.62-.24-1-.12-1.22V60.36l.09-1.25.21-.88a4.73 4.73 0 011-2.24 3.85 3.85 0 01.92-1.37c.27-.28.76-.9 1.13-1l.46-.48c4-3 10.94-3.51 15.56-2.32 2.8.72 3 1.32 4.55 2 .19.19.2.17.41.36a1.33 1.33 0 01.38.41l.38.19c.32.21 0 .08.31.21l1.37 1.73V56a4.55 4.55 0 011 2.11c.1.37 0 .43.26.71l.09 1.46V67zm-9.89-2.23v15.76c0 .41.18 2.52-.13 2.61 0 .37.08.14 0 .49-.18.66 0 .09-.2.35 0 .35 0 .17-.16.52a4.54 4.54 0 00-.31.5c-.4.11-.48.46-1.43.83a5.47 5.47 0 01-2 .31A4.46 4.46 0 0193.12 85a6.51 6.51 0 01-.56-1.31v-.56a9.34 9.34 0 01-.13-2.61V60.36a2.82 2.82 0 011.12-2.22 5 5 0 013-.77c1.74 0 1.92.44 3.12.88.06.1 0 0 .14.17a1.54 1.54 0 01.16.18 2.5 2.5 0 01.68 1.68v4.49zM75.05 52.82a12 12 0 01-1 2.76l-2.24 5.54a14.81 14.81 0 00-.81 2.43c-.39.33-.09.31-.48.65v.25l-.94 2.48h-.16a16.51 16.51 0 01-.7 2.18V91.39H57.85V70.85c0-1.77-1.06-2.78-1.1-3.9l-.22-.33a3.65 3.65 0 01-.14-.35 8.76 8.76 0 01-.74-2.13 4 4 0 01-.65-1.29 4.75 4.75 0 01-.48-1.48 3.81 3.81 0 01-.63-1.37l-.58-1.49c-.37-.92-.75-2-1.16-2.88l-1.09-2.93a9.38 9.38 0 01-.93-2.53 5 5 0 01-.64-1.38 4 4 0 01-.49-1.42l-.39-.68a10.32 10.32 0 01-.7-2.1 7.58 7.58 0 01-1.11-2.8 6.45 6.45 0 01-.95-2.14c-.3-.77-.64-1.49-.87-2.27h10.75c.35.08.26.17.51 1l1 3.32.91 2.82.89 2.68.94 3 .88 2.57.92 2.94L63 59h.63l1.06-3.38.87-2.86.86-2.7.85-2.81.88-2.7.85-2.86c.12-.55 1.08-4.19 1.48-4.31h10.8a32.71 32.71 0 01-1.8 4.35 10.07 10.07 0 01-.74 2.13l-.37.65a9 9 0 01-1.11 2.77 11.48 11.48 0 01-1 2.73 10.52 10.52 0 01-1.21 2.81z" fill="#857263" fill-rule="evenodd" data-name="Layer 1"/>
  </g>
</svg>
